<svg width="19" height="19" viewBox="0 0 19 19" fill="none" xmlns="http://www.w3.org/2000/svg">
<path d="M9.84321 0.488174C4.9089 0.488174 0.908295 4.48878 0.908295 9.42309C0.908295 13.6098 3.79129 17.1131 7.67798 18.0825C7.63628 17.9619 7.60948 17.8219 7.60948 17.6484V16.1213C7.24687 16.1213 6.6393 16.1213 6.48666 16.1213C5.87536 16.1213 5.33182 15.8585 5.06824 15.37C4.77562 14.8272 4.72499 13.997 3.99977 13.4892C3.78459 13.3202 3.9484 13.1274 4.19634 13.1534C4.65426 13.283 5.03399 13.5972 5.39139 14.0633C5.74729 14.5301 5.91482 14.6359 6.57973 14.6359C6.90213 14.6359 7.38462 14.6172 7.83881 14.5458C8.08303 13.9255 8.5052 13.3544 9.02119 13.0849C6.04587 12.7789 4.62596 11.2987 4.62596 9.28906C4.62596 8.42386 4.99453 7.58696 5.62072 6.88185C5.41521 6.18195 5.15685 4.75459 5.69964 4.21105C7.03839 4.21105 7.84774 5.07923 8.04208 5.31377C8.70922 5.08519 9.44188 4.95563 10.2118 4.95563C10.9832 4.95563 11.7188 5.08519 12.3874 5.31526C12.5795 5.08221 13.3896 4.21105 14.7313 4.21105C15.2764 4.75534 15.015 6.18865 14.8073 6.88706C15.4298 7.59068 15.7961 8.42535 15.7961 9.28906C15.7961 11.2972 14.3784 12.7767 11.4076 13.0842C12.2251 13.5108 12.8215 14.7096 12.8215 15.6127V17.6484C12.8215 17.7259 12.8044 17.7817 12.7955 17.848C16.2771 16.6276 18.7781 13.3217 18.7781 9.42309C18.7781 4.48878 14.7775 0.488174 9.84321 0.488174Z" fill="#5F5F5F"/>
</svg>
