<svg width="19" height="19" viewBox="0 0 19 19" fill="none" xmlns="http://www.w3.org/2000/svg">
<path d="M16.6183 0.147934H2.32247C1.08946 0.147934 0.0887451 1.14864 0.0887451 2.38166V16.6775C0.0887451 17.9105 1.08946 18.9112 2.32247 18.9112H16.6183C17.8513 18.9112 18.8521 17.9105 18.8521 16.6775V2.38166C18.8521 1.14864 17.8513 0.147934 16.6183 0.147934ZM5.89644 7.29586V15.784H3.21596V7.29586H5.89644ZM3.21596 4.82536C3.21596 4.19992 3.75206 3.7219 4.5562 3.7219C5.36034 3.7219 5.86517 4.19992 5.89644 4.82536C5.89644 5.4508 5.39608 5.95563 4.5562 5.95563C3.75206 5.95563 3.21596 5.4508 3.21596 4.82536ZM15.7248 15.784H13.0444C13.0444 15.784 13.0444 11.6472 13.0444 11.3166C13.0444 10.4231 12.5976 9.52959 11.4808 9.51172H11.445C10.3639 9.51172 9.91715 10.432 9.91715 11.3166C9.91715 11.7231 9.91715 15.784 9.91715 15.784H7.23667V7.29586H9.91715V8.43953C9.91715 8.43953 10.7794 7.29586 12.5127 7.29586C14.2863 7.29586 15.7248 8.51548 15.7248 10.986V15.784Z" fill="#5F5F5F"/>
</svg>
