<svg width="20" height="16" viewBox="0 0 20 16" fill="none" xmlns="http://www.w3.org/2000/svg">
<path d="M1.28035 0.840617C0.808222 0.81187 0.3284 1.17405 0.3284 1.69572V4.19906V13.0136C0.3284 14.1858 1.29944 15.1391 2.47749 15.1391H16.9426C18.1208 15.1391 19.0917 14.1854 19.0917 13.0136V1.71927C19.0917 1.01649 18.2212 0.607218 17.6738 1.04392L15.071 3.11797V3.11623L10.484 6.77308L10.4779 6.77657C10.0151 7.14136 9.35738 7.13904 8.89771 6.76959L1.7367 1.01164L1.73146 1.00815C1.59375 0.903215 1.43773 0.850199 1.28035 0.840617ZM1.22189 1.74458L8.33754 7.46589C8.57365 7.65566 8.84245 7.78155 9.12196 7.85766L8.3768 8.45187C7.91755 8.8182 7.2515 8.81692 6.79225 8.44925L1.22189 3.98441V1.74458ZM18.1982 1.76814V13.0136C18.1982 13.6957 17.6443 14.2456 16.9426 14.2456H15.071V4.26014L18.1982 1.76814Z" fill="#5F5F5F"/>
</svg>
